<svg xmlns="http://www.w3.org/2000/svg" xmlns:xlink="http://www.w3.org/1999/xlink" width="500" zoomAndPan="magnify" viewBox="0 0 375 374.999991" height="500" preserveAspectRatio="xMidYMid meet" version="1.0"><defs><clipPath id="77a521b680"><path d="M 20.117188 20.535156 L 354.617188 20.535156 L 354.617188 354.285156 L 20.117188 354.285156 Z M 20.117188 20.535156 " clip-rule="nonzero"/></clipPath></defs><g clip-path="url(#77a521b680)"><path fill="#86bf00" d="M 354.59375 200.855469 L 329.726562 200.855469 L 329.726562 227.898438 L 302.679688 227.898438 L 302.679688 252.769531 L 277.8125 252.769531 L 277.8125 277.640625 L 252.941406 277.640625 L 252.632812 304.691406 L 225.898438 304.691406 L 225.898438 329.5625 L 201.03125 329.5625 L 201.03125 354.429688 L 173.976562 354.429688 L 173.976562 329.5625 L 149.105469 329.5625 L 149.105469 304.691406 L 122.367188 304.371094 L 122.367188 277.640625 L 97.179688 277.640625 L 97.179688 252.769531 L 72.3125 252.769531 L 72.3125 227.898438 L 45.578125 227.898438 L 45.578125 200.855469 L 20.394531 200.855469 L 20.394531 72.457031 L 45.578125 72.457031 L 45.578125 47.269531 L 72.3125 47.269531 L 72.3125 20.535156 L 149.105469 20.535156 L 149.105469 47.269531 L 176.148438 47.269531 L 176.148438 72.457031 L 199.152344 72.457031 L 199.152344 47.269531 L 225.898438 47.269531 L 225.898438 20.535156 L 302.679688 20.535156 L 302.679688 47.269531 L 330.046875 47.269531 L 330.046875 72.457031 L 354.59375 72.457031 Z M 354.59375 200.855469 " fill-opacity="1" fill-rule="evenodd"/></g><path fill="#9fe004" d="M 302.992188 176.300781 L 277.8125 176.300781 L 277.8125 175.972656 L 201.03125 175.972656 L 201.03125 124.0625 L 200.40625 124.0625 L 225.898438 124.0625 L 225.898438 99.1875 L 250.445312 99.1875 L 250.445312 124.683594 L 302.992188 124.683594 Z M 302.992188 176.300781 " fill-opacity="1" fill-rule="evenodd"/><path fill="#ffffff" d="M 72.621094 123.128906 L 47.128906 123.128906 L 47.128906 176.300781 L 72.3125 176.300781 L 72.3125 201.476562 L 97.800781 201.476562 L 97.800781 175.972656 L 72.621094 175.972656 Z M 72.621094 123.128906 " fill-opacity="1" fill-rule="evenodd"/><path fill="#ffffff" d="M 97.800781 227.277344 L 123.292969 227.277344 L 123.292969 253.078125 L 148.796875 253.078125 L 148.796875 278.566406 L 173.976562 278.566406 L 173.976562 253.078125 L 148.796875 253.078125 L 148.796875 227.277344 L 123.613281 227.277344 L 123.292969 201.476562 L 97.800781 201.476562 Z M 97.800781 227.277344 " fill-opacity="1" fill-rule="evenodd"/><path fill="#93d102" d="M 302.992188 176.300781 L 302.679688 99.1875 L 250.445312 99.1875 L 250.445312 73.699219 L 302.992188 73.699219 L 302.992188 98.878906 L 330.046875 98.878906 L 330.046875 176.300781 Z M 201.03125 124.0625 L 201.03125 175.972656 L 277.8125 175.972656 L 277.8125 201.789062 L 251.390625 201.789062 L 251.390625 226.03125 L 226.195312 226.03125 L 226.195312 252.769531 L 201.03125 252.769531 L 201.03125 226.34375 L 173.660156 226.34375 L 173.660156 201.789062 L 148.480469 201.789062 L 148.480469 175.972656 L 96.871094 175.972656 L 96.871094 99.1875 L 173.972656 99.1875 L 173.972656 124.0625 Z M 201.03125 124.0625 " fill-opacity="1" fill-rule="evenodd"/><path fill="#ffffff" d="M 250.445312 99.1875 L 302.992188 99.1875 L 302.992188 124.683594 L 250.445312 124.683594 Z M 250.445312 99.1875 " fill-opacity="1" fill-rule="evenodd"/></svg>