<svg xmlns="http://www.w3.org/2000/svg" xmlns:xlink="http://www.w3.org/1999/xlink" width="100" zoomAndPan="magnify" viewBox="0 0 75 74.999997" height="100" preserveAspectRatio="xMidYMid meet" version="1.0"><defs><clipPath id="6a90a1a8bd"><path d="M 2.21875 2.304688 L 72.71875 2.304688 L 72.71875 72.804688 L 2.21875 72.804688 Z M 2.21875 2.304688 " clip-rule="nonzero"/></clipPath></defs><g clip-path="url(#6a90a1a8bd)"><path fill="#fcfc03" d="M 72.714844 40.3125 L 67.476562 40.3125 L 67.476562 46.011719 L 61.773438 46.011719 L 61.773438 51.253906 L 56.53125 51.253906 L 56.53125 56.496094 L 51.292969 56.496094 L 51.226562 62.199219 L 45.589844 62.199219 L 45.589844 67.441406 L 40.351562 67.441406 L 40.351562 72.683594 L 34.648438 72.683594 L 34.648438 67.441406 L 29.40625 67.441406 L 29.40625 62.199219 L 23.769531 62.132812 L 23.769531 56.496094 L 18.460938 56.496094 L 18.460938 51.253906 L 13.21875 51.253906 L 13.21875 46.011719 L 7.585938 46.011719 L 7.585938 40.3125 L 2.277344 40.3125 L 2.277344 13.25 L 7.585938 13.25 L 7.585938 7.941406 L 13.21875 7.941406 L 13.21875 2.304688 L 29.40625 2.304688 L 29.40625 7.941406 L 35.105469 7.941406 L 35.105469 13.25 L 39.953125 13.25 L 39.953125 7.941406 L 45.589844 7.941406 L 45.589844 2.304688 L 61.773438 2.304688 L 61.773438 7.941406 L 67.542969 7.941406 L 67.542969 13.25 L 72.714844 13.25 Z M 72.714844 40.3125 " fill-opacity="1" fill-rule="evenodd"/></g><path fill="#fee900" d="M 61.839844 35.136719 L 56.53125 35.136719 L 56.53125 35.066406 L 40.351562 35.066406 L 40.351562 24.125 L 40.21875 24.125 L 45.589844 24.125 L 45.589844 18.882812 L 50.765625 18.882812 L 50.765625 24.257812 L 61.839844 24.257812 Z M 61.839844 35.136719 " fill-opacity="1" fill-rule="evenodd"/><path fill="#ffffff" d="M 13.285156 23.929688 L 7.910156 23.929688 L 7.910156 35.136719 L 13.21875 35.136719 L 13.21875 40.445312 L 18.589844 40.445312 L 18.589844 35.066406 L 13.285156 35.066406 Z M 13.285156 23.929688 " fill-opacity="1" fill-rule="evenodd"/><path fill="#ffffff" d="M 18.589844 45.882812 L 23.964844 45.882812 L 23.964844 51.320312 L 29.339844 51.320312 L 29.339844 56.691406 L 34.648438 56.691406 L 34.648438 51.320312 L 29.339844 51.320312 L 29.339844 45.882812 L 24.03125 45.882812 L 23.964844 40.445312 L 18.589844 40.445312 Z M 18.589844 45.882812 " fill-opacity="1" fill-rule="evenodd"/><path fill="#fee900" d="M 61.839844 35.136719 L 61.773438 18.882812 L 50.765625 18.882812 L 50.765625 13.511719 L 61.839844 13.511719 L 61.839844 18.820312 L 67.542969 18.820312 L 67.542969 35.136719 Z M 40.351562 24.125 L 40.351562 35.066406 L 56.53125 35.066406 L 56.53125 40.507812 L 50.964844 40.507812 L 50.964844 45.617188 L 45.652344 45.617188 L 45.652344 51.253906 L 40.351562 51.253906 L 40.351562 45.683594 L 34.582031 45.683594 L 34.582031 40.507812 L 29.273438 40.507812 L 29.273438 35.066406 L 18.394531 35.066406 L 18.394531 18.882812 L 34.648438 18.882812 L 34.648438 24.125 Z M 40.351562 24.125 " fill-opacity="1" fill-rule="evenodd"/><path fill="#ffffff" d="M 50.765625 18.882812 L 61.839844 18.882812 L 61.839844 24.257812 L 50.765625 24.257812 Z M 50.765625 18.882812 " fill-opacity="1" fill-rule="evenodd"/></svg>